<?xml version="1.0" encoding="utf-8"?>
<!-- Generator: Adobe Illustrator 24.3.0, SVG Export Plug-In . SVG Version: 6.00 Build 0)  -->
<svg version="1.1" id="Layer_1" xmlns="http://www.w3.org/2000/svg" xmlns:xlink="http://www.w3.org/1999/xlink" x="0px" y="0px"
	 viewBox="0 0 1920 674" style="enable-background:new 0 0 1920 674;" xml:space="preserve">
<style type="text/css">
	.st0{fill:#139EC3;}
	.st1{fill:none;stroke:#139EC3;stroke-width:3;stroke-miterlimit:10;}
	.st2{fill:none;stroke:#070A0A;stroke-width:3;stroke-miterlimit:10;}
</style>
<path class="st0" d="M0,470.19c0,0,42.5,6.31,48.66-313.58C50.39,66.56,80.69,20.13,127.4,0H0V470.19z"/>
<path class="st0" d="M299.14,0C405.2,23.16,522.76,69.89,604,72c235.34,6.11,1035.5-230.5,1113.43,157.38S1920,656.06,1920,656.06V0
	H299.14z"/>
<path class="st1" d="M-3.1,560.02c0,0,214.29-88.75,181.88-270.86s57.04-304.16,192.8-276.18"/>
<path class="st2" d="M-3.07,626c0,0,210.62-144.92,118.64-324.71C40.4,154.37,43.89,37.12,47.68-0.84"/>
</svg>
